Happy Feet 2006 (1080p)

Australië / Verenigde Staten
Animatie / Muziek
108 minuten

geregisseerd door George Miller (II)
met de stemmen van Elijah Wood, Robin Williams en Brittany Murphy

Het verhaal speelt zich af in de wereld van de Keizerspinguïns op Antarctica. Deze pinguïns zingen, ieder zijn eigen lied, om partners aan te trekken. Helaas is Mumble, de zoon van Memphis en Norma Jean, de slechtst denkbare zanger. Dit probeert hij echter te compenseren met zijn uitzonderlijke tapdans-kwaliteiten.
 
http://www.moviemeter.nl/film/33527

English

Storyline
This is the story of a little penguin named Mumble who has a terrible singing voice and later discovers he has no Heartsong. However, Mumble has an astute talent for something that none of the penguins had ever seen before: tap dancing. Though Mumble's mom, Norma Jean, thinks this little habit is cute, his dad, Memphis, says it "just ain't penguin." Besides, they both know that, without a Heartsong, Mumble may never find true love. As fate would have it, his one friend, Gloria, happens to be the best singer around. Mumble and Gloria have a connection from the moment they hatch, but she struggles with his strange "hippity- hoppity" ways. Mumble is just too different--especially for Noah the Elder, the stern leader of Emperor Land, who ultimately casts him out of the community. Away from home for the first time, Mumble meets a posse of decidedly un-Emperor-like penguins--the Adelie Amigos...

 
http://www.imdb.com/title/tt0366548/

Spotinfo:
Categorie : Beeld 
Formaat : x264HD 
Bron : Retail
Ondertitels : Nederlands (instelbaar
Audio dutch, English, Vlaams
| LaNGuaGe ......... English
| SouRCe ........... Blu-Ray
| CoDeC ............ DTS 5.1 1.5 mbps
|
| LaNGuaGe ......... Dutch
| SouRCe ........... Blu-Ray
| CoDeC ............ AC3 5.1 640 kbps
|
| LaNGuaGe ......... Flemish
| SouRCe ........... Blu-Ray
| CoDeC ............ AC3 5.1 640 kbps

Genre : Animatie
Muziek

eneral
Complete name                    : Happy.Feet.2006.1080p.Bluray.DTS.x264-SHiTSoNy\Happy.Feet.2006.1080p.Bluray.DTS.x264-SHiTSoNy.mkv
Format                           : Matroska
File size                        : 6.56 GiB
Duration                         : 1h 48mn
Overall bit rate                 : 8 649 Kbps
Encoded date                     : UTC 2011-02-13 10:51:43
Writing application              : mkvmerge v4.0.0 ('The Stars were mine') built on Jun  5 2010 17:44:09
Writing library                  : libebml v1.0.0 + libmatroska v1.0.0

Video
ID                               : 1
Format                           : AVC
Format/Info                      : Advanced Video Codec
Format profile                   : High@L4.1
Format settings, CABAC           : Yes
Format settings, ReFrames        : 5 frames
Muxing mode                      : Container profile=Unknown@4.1
Codec ID                         : V_MPEG4/ISO/AVC
Duration                         : 1h 48mn
Bit rate                         : 5 862 Kbps
Width                            : 1 920 pixels
Height                           : 796 pixels
Display aspect ratio             : 2.40:1
Frame rate                       : 23.976 fps
Color space                      : YUV
Chroma subsampling               : 4:2:0
Bit depth                        : 8 bits
Scan type                        : Progressive
Bits/(Pixel*Frame)               : 0.160
Stream size                      : 4.31 GiB (66%)
Writing library                  : x264 core 114 r1900 60ef1f8
Encoding settings                : cabac=1 / ref=5 / deblock=1:-1:0 / analyse=0x3:0x113 / me=umh / subme=10 / psy=1 / psy_rd=1.00:0.00 / mixed_ref=1 / me_range=24 / chroma_me=1 / trellis=2 / 8x8dct=1 / cqm=0 / deadzone=21,11 / fast_pskip=1 / chroma_qp_offset=-2 / threads=6 / sliced_threads=0 / nr=0 / decimate=1 / interlaced=0 / constrained_intra=0 / bframes=6 / b_pyramid=2 / b_adapt=2 / b_bias=0 / direct=3 / weightb=1 / open_gop=0 / weightp=2 / keyint=250 / keyint_min=23 / scenecut=40 / intra_refresh=0 / rc_lookahead=40 / rc=2pass / mbtree=0 / bitrate=5862 / ratetol=1.0 / qcomp=0.60 / qpmin=0 / qpmax=69 / qpstep=4 / cplxblur=20.0 / qblur=0.5 / vbv_maxrate=32000 / vbv_bufsize=40000 / nal_hrd=none / ip_ratio=1.40 / pb_ratio=1.30 / aq=1:1.00 / zones=148218,155881,q=25,deblock=1:2

Audio #1
ID                               : 2
Format                           : DTS
Format/Info                      : Digital Theater Systems
Codec ID                         : A_DTS
Duration                         : 1h 48mn
Bit rate mode                    : Constant
Bit rate                         : 1 510 Kbps
Channel(s)                       : 6 channels
Channel positions                : Front: L C R, Side: L R, LFE
Sampling rate                    : 48.0 KHz
Bit depth                        : 24 bits
Stream size                      : 1.14 GiB (17%)
Language                         : English

Audio #2
ID                               : 3
Format                           : AC-3
Format/Info                      : Audio Coding 3
Mode extension                   : CM (complete main)
Codec ID                         : A_AC3
Duration                         : 1h 48mn
Bit rate mode                    : Constant
Bit rate                         : 640 Kbps
Channel(s)                       : 6 channels
Channel positions                : Front: L C R, Side: L R, LFE
Sampling rate                    : 48.0 KHz
Bit depth                        : 16 bits
Stream size                      : 497 MiB (7%)
Language                         : Dutch

Audio #3
ID                               : 4
Format                           : AC-3
Format/Info                      : Audio Coding 3
Mode extension                   : CM (complete main)
Codec ID                         : A_AC3
Duration                         : 1h 48mn
Bit rate mode                    : Constant
Bit rate                         : 640 Kbps
Channel(s)                       : 6 channels
Channel positions                : Front: L C R, Side: L R, LFE
Sampling rate                    : 48.0 KHz
Bit depth                        : 16 bits
Stream size                      : 497 MiB (7%)
Title                            : Flemish
Language                         : dum

Text
ID                               : 5
Format                           : UTF-8
Codec ID                         : S_TEXT/UTF8
Codec ID/Info                    : UTF-8 Plain Text
Language                         : Dutch

Menu
00:00:00.000                     : en:00:00:00.000
00:04:42.282                     : en:00:04:42.282
00:07:00.587                     : en:00:07:00.587
00:11:55.548                     : en:00:11:55.548
00:15:05.404                     : en:00:15:05.404
00:18:15.928                     : en:00:18:15.928
00:22:27.513                     : en:00:22:27.513
00:27:35.988                     : en:00:27:35.988
00:29:55.293                     : en:00:29:55.293
00:32:48.466                     : en:00:32:48.466
00:36:59.551                     : en:00:36:59.551
00:39:48.386                     : en:00:39:48.386
00:43:52.463                     : en:00:43:52.463
00:49:13.951                     : en:00:49:13.951
00:52:19.803                     : en:00:52:19.803
00:56:11.868                     : en:00:56:11.868
01:00:52.482                     : en:01:00:52.482
01:03:49.659                     : en:01:03:49.659
01:07:12.862                     : en:01:07:12.862
01:10:25.555                     : en:01:10:25.555
01:13:49.091                     : en:01:13:49.091
01:16:39.595                     : en:01:16:39.595
01:21:40.395                     : en:01:21:40.395
01:25:07.102                     : en:01:25:07.102
01:27:15.897                     : en:01:27:15.897
01:31:30.485                     : en:01:31:30.485
01:34:32.000                     : en:01:34:32.000
01:38:42.416                     : en:01:38:42.416




Weblink :  http://www.moviemeter.nl/film/33527
Weblink :  http://www.imdb.com/title/tt0366548/

TBS